<svg xmlns="http://www.w3.org/2000/svg" enable-background="new 0 0 24 24" viewBox="0 0 24 24"><path d="M17.5,4h-11C6.34,4,6.189,3.923,6.096,3.794C6.001,3.665,5.975,3.498,6.024,3.346l0.975-3C7.066,0.14,7.258,0,7.475,0H16.5c0.215,0,0.406,0.138,0.475,0.342l1,3c0.051,0.152,0.025,0.32-0.069,0.451C17.812,3.923,17.661,4,17.5,4z M7.188,3h9.618L16.14,1H7.838L7.188,3z"/><path d="M19.5,6.5h-15C4.224,6.5,4,6.276,4,6V3.5C4,3.224,4.224,3,4.5,3h15C19.776,3,20,3.224,20,3.5V6C20,6.276,19.776,6.5,19.5,6.5z M5,5.5h14V4H5V5.5z"/><path d="M17.951 11c-.025 0-.051-.002-.075-.005-.273-.042-.461-.296-.42-.569l.68-4.5c.041-.274.309-.458.568-.42.273.042.461.296.42.569l-.68 4.5C18.407 10.822 18.194 11 17.951 11zM6.049 11c-.243 0-.457-.178-.493-.426l-.67-4.5C4.845 5.8 5.033 5.546 5.307 5.505c.268-.04.527.148.567.421l.67 4.5c.041.273-.147.528-.421.568C6.099 10.998 6.073 11 6.049 11zM16 24H8c-.247 0-.458-.181-.494-.425l-.9-5.97c-.041-.273.146-.528.42-.569.27-.035.527.147.568.42L8.431 23h7.139l.837-5.545c.041-.273.298-.46.568-.42.273.042.461.296.42.569l-.9 5.97C16.458 23.819 16.247 24 16 24zM19 4H5C4.724 4 4.5 3.776 4.5 3.5S4.724 3 5 3h14c.276 0 .5.224.5.5S19.276 4 19 4z"/><path d="M17.5,18.028h-11c-0.224,0-0.42-0.148-0.48-0.363l-2-7.028c-0.043-0.151-0.013-0.313,0.081-0.438C4.195,10.074,4.343,10,4.5,10h15c0.157,0,0.305,0.074,0.399,0.199c0.094,0.125,0.124,0.287,0.081,0.438l-2,7.028C17.92,17.88,17.724,18.028,17.5,18.028z M6.878,17.028h10.244L18.838,11H5.162L6.878,17.028z"/></svg>